{
  "header": {
    "PPQ": 96,
    "timeSignature": [
      4,
      4
    ],
    "bpm": 140.00014000014,
    "name": ""
  },
  "tempo": [
    {
      "absoluteTime": 0,
      "seconds": 0,
      "bpm": 140.00014000014
    }
  ],
  "timeSignature": [
    {
      "absoluteTime": 0,
      "seconds": 0,
      "numerator": 4,
      "denominator": 2,
      "click": 24,
      "notesQ": 8
    }
  ],
  "startTime": 0,
  "duration": 149.50431478125037,
  "tracks": [
    {
      "startTime": 0,
      "duration": 0,
      "length": 0,
      "notes": [],
      "controlChanges": {},
      "id": 0
    },
    {
      "startTime": 0,
      "duration": 0,
      "length": 0,
      "notes": [],
      "controlChanges": {},
      "id": 1
    },
    {
      "startTime": 0,
      "duration": 149.50431478125037,
      "length": 73,
      "notes": [
        {
          "name": "C3",
          "midi": 48,
          "time": 0,
          "velocity": 0.7874015748031497,
          "duration": 0.36160678125
        },
        {
          "name": "D3",
          "midi": 50,
          "time": 13.285701000000001,
          "velocity": 0.7874015748031497,
          "duration": 0.3616067812499999
        },
        {
          "name": "C#3",
          "midi": 49,
          "time": 13.714272000000001,
          "velocity": 0.7874015748031497,
          "duration": 0.3616067812499999
        },
        {
          "name": "C3",
          "midi": 48,
          "time": 18.857124000000002,
          "velocity": 0.7874015748031497,
          "duration": 0.3616067812499999
        },
        {
          "name": "C#3",
          "midi": 49,
          "time": 20.571408,
          "velocity": 0.7874015748031497,
          "duration": 0.3616067812499999
        },
        {
          "name": "C3",
          "midi": 48,
          "time": 25.714260000000003,
          "velocity": 0.7874015748031497,
          "duration": 0.3616067812499999
        },
        {
          "name": "D3",
          "midi": 50,
          "time": 26.999973000000004,
          "velocity": 0.7874015748031497,
          "duration": 0.3616067812499999
        },
        {
          "name": "C#3",
          "midi": 49,
          "time": 27.428544000000006,
          "velocity": 0.7874015748031497,
          "duration": 0.3616067812499999
        },
        {
          "name": "D3",
          "midi": 50,
          "time": 40.714245000000005,
          "velocity": 0.7874015748031497,
          "duration": 0.36160678125000345
        },
        {
          "name": "C#3",
          "midi": 49,
          "time": 41.14281600000001,
          "velocity": 0.7874015748031497,
          "duration": 0.36160678125000345
        },
        {
          "name": "D3",
          "midi": 50,
          "time": 52.714233000000014,
          "velocity": 0.7874015748031497,
          "duration": 0.36160678125000345
        },
        {
          "name": "C3",
          "midi": 48,
          "time": 53.14280400000002,
          "velocity": 0.7874015748031497,
          "duration": 0.36160678125000345
        },
        {
          "name": "C#3",
          "midi": 49,
          "time": 54.857088000000026,
          "velocity": 0.7874015748031497,
          "duration": 0.36160678125000345
        },
        {
          "name": "D3",
          "midi": 50,
          "time": 57.857085000000026,
          "velocity": 0.7874015748031497,
          "duration": 0.36160678125000345
        },
        {
          "name": "C#3",
          "midi": 49,
          "time": 58.28565600000003,
          "velocity": 0.7874015748031497,
          "duration": 0.36160678125000345
        },
        {
          "name": "D3",
          "midi": 50,
          "time": 64.71422100000004,
          "velocity": 0.7874015748031497,
          "duration": 0.36160678125000345
        },
        {
          "name": "C#3",
          "midi": 49,
          "time": 65.14279200000004,
          "velocity": 0.7874015748031497,
          "duration": 0.36160678125000345
        },
        {
          "name": "D3",
          "midi": 50,
          "time": 68.14278900000005,
          "velocity": 0.7874015748031497,
          "duration": 0.36160678125000345
        },
        {
          "name": "C#3",
          "midi": 49,
          "time": 68.57136000000006,
          "velocity": 0.7874015748031497,
          "duration": 0.36160678125000345
        },
        {
          "name": "D3",
          "midi": 50,
          "time": 69.85707300000006,
          "velocity": 0.7874015748031497,
          "duration": 0.36160678125000345
        },
        {
          "name": "C#3",
          "midi": 49,
          "time": 70.28564400000006,
          "velocity": 0.7874015748031497,
          "duration": 0.36160678125000345
        },
        {
          "name": "D3",
          "midi": 50,
          "time": 71.57135700000006,
          "velocity": 0.7874015748031497,
          "duration": 0.36160678125000345
        },
        {
          "name": "C#3",
          "midi": 49,
          "time": 71.99992800000007,
          "velocity": 0.7874015748031497,
          "duration": 0.36160678125000345
        },
        {
          "name": "D3",
          "midi": 50,
          "time": 73.28564100000007,
          "velocity": 0.7874015748031497,
          "duration": 0.36160678125000345
        },
        {
          "name": "C#3",
          "midi": 49,
          "time": 73.71421200000007,
          "velocity": 0.7874015748031497,
          "duration": 0.36160678125000345
        },
        {
          "name": "D3",
          "midi": 50,
          "time": 74.99992500000008,
          "velocity": 0.7874015748031497,
          "duration": 0.36160678125000345
        },
        {
          "name": "C#3",
          "midi": 49,
          "time": 75.42849600000008,
          "velocity": 0.7874015748031497,
          "duration": 0.36160678125000345
        },
        {
          "name": "D3",
          "midi": 50,
          "time": 81.42849000000008,
          "velocity": 0.7874015748031497,
          "duration": 0.36160678125000345
        },
        {
          "name": "C#3",
          "midi": 49,
          "time": 82.28563200000009,
          "velocity": 0.7874015748031497,
          "duration": 0.36160678125000345
        },
        {
          "name": "D3",
          "midi": 50,
          "time": 95.5713330000001,
          "velocity": 0.7874015748031497,
          "duration": 0.36160678125000345
        },
        {
          "name": "D#3",
          "midi": 51,
          "time": 95.7856185000001,
          "velocity": 0.7874015748031497,
          "duration": 0.36160678125000345
        },
        {
          "name": "C#3",
          "midi": 49,
          "time": 95.9999040000001,
          "velocity": 0.7874015748031497,
          "duration": 0.36160678125000345
        },
        {
          "name": "D3",
          "midi": 50,
          "time": 98.99990100000011,
          "velocity": 0.7874015748031497,
          "duration": 0.36160678125000345
        },
        {
          "name": "C#3",
          "midi": 49,
          "time": 99.42847200000011,
          "velocity": 0.7874015748031497,
          "duration": 0.36160678125000345
        },
        {
          "name": "D3",
          "midi": 50,
          "time": 105.85703700000012,
          "velocity": 0.7874015748031497,
          "duration": 0.36160678125000345
        },
        {
          "name": "C#3",
          "midi": 49,
          "time": 106.28560800000012,
          "velocity": 0.7874015748031497,
          "duration": 0.36160678125000345
        },
        {
          "name": "D3",
          "midi": 50,
          "time": 110.99988900000012,
          "velocity": 0.7874015748031497,
          "duration": 0.36160678125000345
        },
        {
          "name": "C#3",
          "midi": 49,
          "time": 111.42846000000013,
          "velocity": 0.7874015748031497,
          "duration": 0.36160678125000345
        },
        {
          "name": "D3",
          "midi": 50,
          "time": 112.71417300000013,
          "velocity": 0.7874015748031497,
          "duration": 0.36160678125000345
        },
        {
          "name": "C#3",
          "midi": 49,
          "time": 113.14274400000014,
          "velocity": 0.7874015748031497,
          "duration": 0.36160678125000345
        },
        {
          "name": "D3",
          "midi": 50,
          "time": 114.42845700000014,
          "velocity": 0.7874015748031497,
          "duration": 0.36160678125000345
        },
        {
          "name": "C#3",
          "midi": 49,
          "time": 114.85702800000014,
          "velocity": 0.7874015748031497,
          "duration": 0.36160678125000345
        },
        {
          "name": "D3",
          "midi": 50,
          "time": 117.85702500000015,
          "velocity": 0.7874015748031497,
          "duration": 0.36160678125000345
        },
        {
          "name": "C#3",
          "midi": 49,
          "time": 118.28559600000015,
          "velocity": 0.7874015748031497,
          "duration": 0.36160678125000345
        },
        {
          "name": "D3",
          "midi": 50,
          "time": 119.57130900000016,
          "velocity": 0.7874015748031497,
          "duration": 0.36160678125000345
        },
        {
          "name": "C#3",
          "midi": 49,
          "time": 119.99988000000016,
          "velocity": 0.7874015748031497,
          "duration": 0.36160678125000345
        },
        {
          "name": "D3",
          "midi": 50,
          "time": 121.28559300000016,
          "velocity": 0.7874015748031497,
          "duration": 0.36160678125000345
        },
        {
          "name": "C#3",
          "midi": 49,
          "time": 121.71416400000017,
          "velocity": 0.7874015748031497,
          "duration": 0.36160678125000345
        },
        {
          "name": "D3",
          "midi": 50,
          "time": 124.71416100000017,
          "velocity": 0.7874015748031497,
          "duration": 0.36160678125000345
        },
        {
          "name": "C#3",
          "midi": 49,
          "time": 125.14273200000018,
          "velocity": 0.7874015748031497,
          "duration": 0.36160678125000345
        },
        {
          "name": "D3",
          "midi": 50,
          "time": 126.42844500000018,
          "velocity": 0.7874015748031497,
          "duration": 0.36160678125000345
        },
        {
          "name": "C#3",
          "midi": 49,
          "time": 126.85701600000019,
          "velocity": 0.7874015748031497,
          "duration": 0.36160678125000345
        },
        {
          "name": "D3",
          "midi": 50,
          "time": 128.1427290000002,
          "velocity": 0.7874015748031497,
          "duration": 0.36160678125000345
        },
        {
          "name": "C#3",
          "midi": 49,
          "time": 128.5713000000002,
          "velocity": 0.7874015748031497,
          "duration": 0.36160678125000345
        },
        {
          "name": "D3",
          "midi": 50,
          "time": 129.85701300000022,
          "velocity": 0.7874015748031497,
          "duration": 0.36160678125000345
        },
        {
          "name": "C#3",
          "midi": 49,
          "time": 130.28558400000023,
          "velocity": 0.7874015748031497,
          "duration": 0.36160678125000345
        },
        {
          "name": "D3",
          "midi": 50,
          "time": 131.57129700000024,
          "velocity": 0.7874015748031497,
          "duration": 0.36160678125000345
        },
        {
          "name": "C#3",
          "midi": 49,
          "time": 131.99986800000025,
          "velocity": 0.7874015748031497,
          "duration": 0.36160678125000345
        },
        {
          "name": "D3",
          "midi": 50,
          "time": 133.28558100000026,
          "velocity": 0.7874015748031497,
          "duration": 0.36160678125000345
        },
        {
          "name": "C#3",
          "midi": 49,
          "time": 133.71415200000027,
          "velocity": 0.7874015748031497,
          "duration": 0.36160678125000345
        },
        {
          "name": "D3",
          "midi": 50,
          "time": 134.99986500000028,
          "velocity": 0.7874015748031497,
          "duration": 0.36160678125000345
        },
        {
          "name": "C#3",
          "midi": 49,
          "time": 135.4284360000003,
          "velocity": 0.7874015748031497,
          "duration": 0.36160678125000345
        },
        {
          "name": "D3",
          "midi": 50,
          "time": 138.4284330000003,
          "velocity": 0.7874015748031497,
          "duration": 0.36160678125000345
        },
        {
          "name": "C#3",
          "midi": 49,
          "time": 138.8570040000003,
          "velocity": 0.7874015748031497,
          "duration": 0.36160678125000345
        },
        {
          "name": "D3",
          "midi": 50,
          "time": 140.14271700000032,
          "velocity": 0.7874015748031497,
          "duration": 0.36160678125000345
        },
        {
          "name": "C#3",
          "midi": 49,
          "time": 140.57128800000032,
          "velocity": 0.7874015748031497,
          "duration": 0.36160678125000345
        },
        {
          "name": "D3",
          "midi": 50,
          "time": 141.85700100000034,
          "velocity": 0.7874015748031497,
          "duration": 0.36160678125000345
        },
        {
          "name": "C#3",
          "midi": 49,
          "time": 142.28557200000034,
          "velocity": 0.7874015748031497,
          "duration": 0.36160678125000345
        },
        {
          "name": "D3",
          "midi": 50,
          "time": 145.28556900000035,
          "velocity": 0.7874015748031497,
          "duration": 0.36160678125000345
        },
        {
          "name": "C#3",
          "midi": 49,
          "time": 145.71414000000036,
          "velocity": 0.7874015748031497,
          "duration": 0.36160678125000345
        },
        {
          "name": "D3",
          "midi": 50,
          "time": 146.99985300000037,
          "velocity": 0.7874015748031497,
          "duration": 0.36160678125000345
        },
        {
          "name": "C#3",
          "midi": 49,
          "time": 147.42842400000038,
          "velocity": 0.7874015748031497,
          "duration": 0.36160678125000345
        },
        {
          "name": "D3",
          "midi": 50,
          "time": 149.14270800000037,
          "velocity": 0.7874015748031497,
          "duration": 0.36160678125000345
        }
      ],
      "controlChanges": {
        "6": [
          {
            "number": 6,
            "time": 0,
            "value": 0.09448818897637795
          },
          {
            "number": 6,
            "time": 0,
            "value": 0.09448818897637795
          },
          {
            "number": 6,
            "time": 0,
            "value": 0.09448818897637795
          },
          {
            "number": 6,
            "time": 157.71412800000036,
            "value": 0.09448818897637795
          },
          {
            "number": 6,
            "time": 157.71412800000036,
            "value": 0.09448818897637795
          }
        ],
        "7": [
          {
            "number": 7,
            "time": 0,
            "value": 0.7874015748031497
          },
          {
            "number": 7,
            "time": 0,
            "value": 0.7874015748031497
          },
          {
            "number": 7,
            "time": 0,
            "value": 0.7874015748031497
          },
          {
            "number": 7,
            "time": 0,
            "value": 0.7874015748031497
          },
          {
            "number": 7,
            "time": 157.71412800000036,
            "value": 0.7874015748031497
          },
          {
            "number": 7,
            "time": 157.71412800000036,
            "value": 0.7874015748031497
          }
        ],
        "10": [
          {
            "number": 10,
            "time": 0,
            "value": 0.5039370078740157
          },
          {
            "number": 10,
            "time": 0,
            "value": 0.5039370078740157
          },
          {
            "number": 10,
            "time": 0,
            "value": 0.5039370078740157
          },
          {
            "number": 10,
            "time": 0,
            "value": 0.5039370078740157
          },
          {
            "number": 10,
            "time": 157.71412800000036,
            "value": 0.5039370078740157
          },
          {
            "number": 10,
            "time": 157.71412800000036,
            "value": 0.5039370078740157
          }
        ],
        "100": [
          {
            "number": 100,
            "time": 0,
            "value": 0
          },
          {
            "number": 100,
            "time": 0,
            "value": 0
          },
          {
            "number": 100,
            "time": 0,
            "value": 0
          },
          {
            "number": 100,
            "time": 157.71412800000036,
            "value": 0
          },
          {
            "number": 100,
            "time": 157.71412800000036,
            "value": 0
          }
        ],
        "101": [
          {
            "number": 101,
            "time": 0,
            "value": 0
          },
          {
            "number": 101,
            "time": 0,
            "value": 0
          },
          {
            "number": 101,
            "time": 0,
            "value": 0
          },
          {
            "number": 101,
            "time": 157.71412800000036,
            "value": 0
          },
          {
            "number": 101,
            "time": 157.71412800000036,
            "value": 0
          }
        ]
      },
      "id": 2,
      "name": "MIDI Out",
      "channelNumber": 0,
      "isPercussion": false
    }
  ]
}